<svg xmlns="http://www.w3.org/2000/svg" viewBox="0 0 48 48" role="img" aria-label="Mailchimp">
  <rect width="48" height="48" rx="12" fill="#FFFBEB"/>
  <path fill="#FFE01B" d="M24 8c-8.84 0-16 7.16-16 16 0 5.2 2.5 9.82 6.36 12.74L12 40l3.26-2.36C18.18 39.5 21 40 24 40c8.84 0 16-7.16 16-16S32.84 8 24 8z"/>
  <path fill="#241C15" d="M24 14c-5.52 0-10 4.48-10 10s4.48 10 10 10 10-4.48 10-10-4.48-10-10-10zm-2.5 14.5c-.83 0-1.5-.67-1.5-1.5s.67-1.5 1.5-1.5 1.5.67 1.5 1.5-.67 1.5-1.5 1.5zm5 0c-.83 0-1.5-.67-1.5-1.5s.67-1.5 1.5-1.5 1.5.67 1.5 1.5-.67 1.5-1.5 1.5z"/>
</svg>
